<?xml version="1.0" standalone="no"?><svg xmlns="http://www.w3.org/2000/svg" viewBox="0 0 1440 320"><path fill="#E7EFFA" fill-opacity="1" d="M0,128L18.5,138.7C36.9,149,74,171,111,165.3C147.7,160,185,128,222,128C258.5,128,295,160,332,192C369.2,224,406,256,443,229.3C480,203,517,117,554,117.3C590.8,117,628,203,665,245.3C701.5,288,738,288,775,245.3C812.3,203,849,117,886,101.3C923.1,85,960,139,997,149.3C1033.8,160,1071,128,1108,96C1144.6,64,1182,32,1218,69.3C1255.4,107,1292,213,1329,245.3C1366.2,277,1403,235,1422,213.3L1440,192L1440,320L1421.5,320C1403.1,320,1366,320,1329,320C1292.3,320,1255,320,1218,320C1181.5,320,1145,320,1108,320C1070.8,320,1034,320,997,320C960,320,923,320,886,320C849.2,320,812,320,775,320C738.5,320,702,320,665,320C627.7,320,591,320,554,320C516.9,320,480,320,443,320C406.2,320,369,320,332,320C295.4,320,258,320,222,320C184.6,320,148,320,111,320C73.8,320,37,320,18,320L0,320Z"></path></svg>